<?xml version="1.0" encoding="UTF-8"?>
<svg width="40px" height="45px" viewBox="0 0 40 45" version="1.1" xmlns="http://www.w3.org/2000/svg" xmlns:xlink="http://www.w3.org/1999/xlink">
    <title>Group 5</title>
    <defs>
        <filter id="filter-1">
            <feColorMatrix in="SourceGraphic" type="matrix" values="0 0 0 0 0.015686 0 0 0 0 1.000000 0 0 0 0 0.717647 0 0 0 1.000000 0"></feColorMatrix>
        </filter>
    </defs>
    <g id="Page-1" stroke="none" stroke-width="1" fill="none" fill-rule="evenodd">
        <g id="Desktop-HD-Copy" transform="translate(-1140.000000, -4381.000000)">
            <g filter="url(#filter-1)" id="Group-5">
                <g transform="translate(1140.610000, 4381.206531)">
                    <path d="M12.73,34.0057143 L18.88,43.5689796 C18.88,43.5779592 18.89,43.5779592 18.89,43.5779592 C18.89,43.5869388 18.9,43.5869388 18.9,43.5959184 C18.91,43.6138776 18.93,43.6318367 18.94,43.6408163 L18.94,43.6408163 C18.96,43.6587755 18.97,43.6677551 18.99,43.6767347 C19,43.6767347 19,43.6857143 19.01,43.6857143 C19.03,43.6946939 19.05,43.7036735 19.06,43.7126531 C19.06,43.7126531 19.06,43.7126531 19.07,43.7126531 C19.09,43.7216327 19.11,43.7216327 19.13,43.7306122 C19.14,43.7306122 19.14,43.7306122 19.15,43.7306122 C19.17,43.7306122 19.2,43.7395918 19.22,43.7395918 L19.22,43.7395918 L19.22,43.7395918 L19.22,43.7395918 C19.24,43.7395918 19.27,43.7395918 19.29,43.7306122 C19.3,43.7306122 19.3,43.7306122 19.31,43.7306122 C19.33,43.7216327 19.35,43.7216327 19.38,43.7126531 C19.38,43.7126531 19.38,43.7126531 19.39,43.7126531 C19.41,43.7036735 19.43,43.6946939 19.45,43.6857143 L19.46,43.6767347 C19.48,43.6677551 19.5,43.6497959 19.51,43.6408163 L19.51,43.6408163 C19.53,43.6228571 19.54,43.6138776 19.55,43.5959184 C19.55,43.5869388 19.56,43.5869388 19.56,43.5779592 C19.56,43.5689796 19.57,43.5689796 19.57,43.56 L25.71,33.9967347 L31.85,24.442449 C31.92,24.3346939 31.92,24.1910204 31.85,24.0832653 L26.01,14.9869388 C26.01,14.9689796 26.01,14.96 26.01,14.9420408 L26.01,9.64408163 C26.01,9.44653061 25.83,9.28489796 25.61,9.28489796 L12.84,9.28489796 C12.62,9.28489796 12.44,9.44653061 12.44,9.64408163 L12.44,14.9420408 C12.44,14.9510204 12.44,14.9689796 12.44,14.9779592 L6.58,24.0922449 C6.51,24.2 6.51,24.3436735 6.58,24.4514286 L12.73,34.0057143 Z M19.23,25.6546939 C18.99,25.6546939 18.79,25.475102 18.79,25.2595918 C18.79,25.035102 18.98,24.8644898 19.23,24.8644898 C19.47,24.8644898 19.67,25.0440816 19.67,25.2595918 C19.67,25.475102 19.47,25.6546939 19.23,25.6546939 Z M25.22,10.0032653 L25.22,14.564898 L13.24,14.564898 L13.24,10.0032653 L25.22,10.0032653 Z M13.16,15.3012245 L25.29,15.3012245 L31.06,24.2718367 L25.03,33.6465306 L19.63,42.0514286 L19.63,26.3102041 C20.12,26.157551 20.47,25.7444898 20.47,25.2595918 C20.47,24.6489796 19.91,24.1461224 19.23,24.1461224 C18.55,24.1461224 17.99,24.6489796 17.99,25.2595918 C17.99,25.7444898 18.34,26.1665306 18.83,26.3102041 L18.83,42.042449 L13.43,33.637551 L7.4,24.2628571 L13.16,15.3012245 Z" id="Shape" fill="#000000" fill-rule="nonzero" transform="translate(19.215000, 26.512245) rotate(180.000000) translate(-19.215000, -26.512245) "></path>
                    <path d="M37.98,5.59552404e-14 L35.91,5.59552404e-14 C35.69,5.59552404e-14 35.51,0.161632653 35.51,0.359183673 L35.51,1.76897959 C35.51,1.96653061 35.69,2.12816327 35.91,2.12816327 L36.29,2.12816327 C34.49,8.71918367 28.15,13.5861224 20.62,14.1338776 L20.62,13.8644898 C20.62,13.6669388 20.44,13.5053061 20.22,13.5053061 L18.15,13.5053061 C17.93,13.5053061 17.75,13.6669388 17.75,13.8644898 L17.75,14.1338776 C10.22,13.5861224 3.88,8.71918367 2.08,2.12816327 L2.46,2.12816327 C2.68,2.12816327 2.86,1.96653061 2.86,1.76897959 L2.86,0.359183673 C2.86,0.161632653 2.68,5.59552404e-14 2.46,5.59552404e-14 L0.4,5.59552404e-14 C0.18,5.59552404e-14 -2.91322522e-13,0.161632653 -2.91322522e-13,0.359183673 L-2.91322522e-13,1.76897959 C-2.91322522e-13,1.96653061 0.18,2.12816327 0.4,2.12816327 L1.27,2.12816327 C2.79,7.96489796 7.71,12.5355102 13.93,14.2146939 L8.57,14.2146939 L8.57,13.8644898 C8.57,13.6669388 8.39,13.5053061 8.17,13.5053061 L6.1,13.5053061 C5.88,13.5053061 5.7,13.6669388 5.7,13.8644898 L5.7,15.2742857 C5.7,15.4718367 5.88,15.6334694 6.1,15.6334694 L8.17,15.6334694 C8.39,15.6334694 8.57,15.4718367 8.57,15.2742857 L8.57,14.9330612 L17.77,14.9330612 L17.77,15.2742857 C17.77,15.4718367 17.95,15.6334694 18.17,15.6334694 L20.24,15.6334694 C20.46,15.6334694 20.64,15.4718367 20.64,15.2742857 L20.64,14.9330612 L30.86,14.9330612 L30.86,15.2742857 C30.86,15.4718367 31.04,15.6334694 31.26,15.6334694 L33.33,15.6334694 C33.55,15.6334694 33.73,15.4718367 33.73,15.2742857 L33.73,13.8644898 C33.73,13.6669388 33.55,13.5053061 33.33,13.5053061 L31.26,13.5053061 C31.04,13.5053061 30.86,13.6669388 30.86,13.8644898 L30.86,14.2146939 L24.47,14.2146939 C30.68,12.5355102 35.61,7.96489796 37.13,2.12816327 L37.99,2.12816327 C38.21,2.12816327 38.39,1.96653061 38.39,1.76897959 L38.39,0.359183673 C38.38,0.161632653 38.2,5.59552404e-14 37.98,5.59552404e-14 Z M0.8,0.718367347 L2.07,0.718367347 L2.07,1.40979592 L1.59,1.40979592 L1.59,1.40979592 L0.8,1.40979592 C0.8,1.40979592 0.8,0.718367347 0.8,0.718367347 Z M6.49,14.915102 L6.49,14.2236735 L7.76,14.2236735 L7.76,14.564898 L7.76,14.564898 L7.76,14.564898 L7.76,14.9061224 L6.49,14.915102 L6.49,14.915102 Z M31.65,14.2236735 L32.92,14.2236735 L32.92,14.915102 L31.65,14.915102 L31.65,14.2236735 Z M19.83,14.915102 L18.56,14.915102 L18.56,14.2236735 L19.83,14.2236735 L19.83,14.915102 Z M37.58,1.40979592 L36.8,1.40979592 L36.8,1.40979592 L36.31,1.40979592 L36.31,0.718367347 L37.58,0.718367347 L37.58,1.40979592 L37.58,1.40979592 Z" id="Shape" fill="#000000" fill-rule="nonzero" transform="translate(19.195000, 7.816735) rotate(180.000000) translate(-19.195000, -7.816735) "></path>
                </g>
            </g>
        </g>
    </g>
</svg>