<?xml version="1.0" encoding="UTF-8"?>
<svg width="40px" height="49px" viewBox="0 0 40 49" version="1.1" xmlns="http://www.w3.org/2000/svg" xmlns:xlink="http://www.w3.org/1999/xlink">
    <title>noun_bulb_3031411 2</title>
    <g id="Page-1" stroke="none" stroke-width="1" fill="none" fill-rule="evenodd">
        <g id="noun_bulb_3031411-2" fill="#AD75BE" fill-rule="nonzero">
            <g id="noun_bulb_3031411">
                <path d="M19.69,9.77 C12.75,9.77 7.11,15.41 7.11,22.35 C7.11,26.43 8.42,28.39 9.81,30.47 C11.31,32.72 12.87,35.05 13.2,40.47 C13.08,40.62 13.01,40.8 13.01,41.01 L13.01,42.11 C13.01,42.58 13.38,42.96 13.84,42.97 C13.84,42.99 13.84,43.02 13.84,43.04 L13.84,44.15 C13.84,44.63 14.23,45.02 14.71,45.02 L15.81,45.02 C15.88,47.11 17.6,48.78 19.7,48.78 C21.8,48.78 23.52,47.1 23.59,45.02 L24.69,45.02 C25.17,45.02 25.56,44.63 25.56,44.15 L25.56,43.04 C25.56,43.02 25.56,42.99 25.56,42.97 C26.02,42.95 26.39,42.57 26.39,42.11 L26.39,41.01 C26.39,40.81 26.32,40.62 26.2,40.47 C26.53,35.05 28.08,32.72 29.59,30.47 C30.98,28.39 32.29,26.43 32.29,22.35 C32.27,15.42 26.62,9.77 19.69,9.77 Z M19.69,47.97 C18.03,47.97 16.67,46.65 16.6,45.01 L22.78,45.01 C22.71,46.66 21.35,47.97 19.69,47.97 Z M24.75,44.15 C24.75,44.18 24.72,44.22 24.68,44.22 L23.17,44.22 L16.2,44.22 L14.7,44.22 C14.66,44.22 14.63,44.19 14.63,44.15 L14.63,43.04 C14.63,43.01 14.66,42.97 14.7,42.97 L24.68,42.97 C24.71,42.97 24.75,43 24.75,43.04 L24.75,44.15 Z M25.57,42.11 C25.57,42.15 25.54,42.18 25.5,42.18 L24.67,42.18 L14.7,42.18 L13.87,42.18 C13.83,42.18 13.8,42.15 13.8,42.11 L13.8,41.01 C13.8,40.97 13.83,40.94 13.87,40.94 L25.51,40.94 C25.55,40.94 25.58,40.97 25.58,41.01 L25.58,42.11 L25.57,42.11 Z M15.35,24.07 C15.21,23.63 15.14,23.17 15.14,22.7 C15.14,22.23 15.21,21.77 15.35,21.34 C15.41,21.16 15.33,20.96 15.17,20.87 L14.35,20.4 L15.02,19.24 L15.84,19.71 C16,19.8 16.21,19.77 16.33,19.63 C16.96,18.95 17.8,18.46 18.7,18.26 C18.88,18.22 19.01,18.06 19.01,17.87 L19.01,16.92 L20.35,16.92 L20.35,17.87 C20.35,18.06 20.48,18.22 20.66,18.26 C21.57,18.46 22.39,18.93 23.03,19.63 C23.16,19.77 23.36,19.8 23.52,19.7 L24.34,19.23 L25.01,20.39 L24.19,20.86 C24.03,20.95 23.95,21.15 24.01,21.33 C24.15,21.76 24.22,22.22 24.22,22.69 C24.22,23.16 24.15,23.62 24.01,24.06 C23.95,24.24 24.03,24.43 24.19,24.53 L25.01,25 L24.38,26.09 C24.33,26.04 24.27,26 24.2,25.98 C24.14,25.96 24.08,25.96 24.03,25.97 L23.53,25.68 C23.37,25.59 23.16,25.62 23.04,25.75 C22.4,26.44 21.58,26.92 20.66,27.12 C20.48,27.16 20.35,27.32 20.35,27.51 L20.35,28.46 L19.01,28.46 L19.01,27.51 C19.01,27.32 18.88,27.16 18.7,27.12 C17.8,26.92 16.95,26.43 16.33,25.75 C16.2,25.61 16,25.58 15.84,25.67 L15.02,26.14 L14.35,24.98 L15.17,24.51 C15.33,24.44 15.41,24.25 15.35,24.07 Z M15.97,26.54 C16.6,27.15 17.37,27.6 18.22,27.84 L18.22,28.88 C18.22,29.1 18.4,29.28 18.62,29.28 L20.76,29.28 C20.98,29.28 21.16,29.1 21.16,28.88 L21.16,27.84 C22.01,27.6 22.78,27.15 23.41,26.54 L23.61,26.66 C23.08,28.59 20.88,36.84 21.51,40.14 L18.05,40.14 C18.69,36.78 16.41,28.3 15.92,26.56 L15.97,26.54 Z M28.91,30.03 C27.44,32.23 25.78,34.71 25.41,40.15 L22.33,40.15 C21.64,37.37 23.73,29.31 24.34,27.08 C24.53,27.17 24.75,27.1 24.86,26.92 L25.93,25.07 C25.98,24.98 26,24.87 25.97,24.77 C25.94,24.67 25.88,24.58 25.78,24.53 L24.88,24.01 C24.99,23.59 25.04,23.15 25.04,22.71 C25.04,22.27 24.99,21.83 24.88,21.41 L25.78,20.89 C25.87,20.84 25.94,20.75 25.97,20.65 C26,20.55 25.98,20.44 25.93,20.35 L24.86,18.5 C24.81,18.41 24.72,18.34 24.62,18.31 C24.52,18.28 24.41,18.3 24.32,18.35 L23.43,18.87 C22.79,18.25 22.02,17.81 21.18,17.57 L21.18,16.54 C21.18,16.32 21,16.14 20.78,16.14 L18.64,16.14 C18.42,16.14 18.24,16.32 18.24,16.54 L18.24,17.57 C17.4,17.81 16.62,18.26 15.99,18.87 L15.09,18.35 C15,18.3 14.89,18.28 14.79,18.31 C14.69,18.34 14.6,18.4 14.55,18.5 L13.48,20.35 C13.37,20.54 13.44,20.79 13.63,20.9 L14.53,21.42 C14.42,21.84 14.37,22.27 14.37,22.72 C14.37,23.16 14.42,23.6 14.53,24.02 L13.63,24.54 C13.54,24.59 13.47,24.68 13.44,24.78 C13.41,24.88 13.43,24.99 13.48,25.08 L14.55,26.93 C14.66,27.12 14.9,27.19 15.1,27.08 L15.24,27 C15.81,29.1 17.97,37.34 17.27,40.16 L14.01,40.16 C13.63,34.72 11.97,32.24 10.51,30.04 C9.14,27.98 7.95,26.2 7.95,22.37 C7.95,15.87 13.23,10.59 19.73,10.59 C26.23,10.59 31.51,15.87 31.51,22.37 C31.47,26.19 30.28,27.97 28.91,30.03 Z" id="Shape"></path>
                <path d="M19.69,26.26 C21.65,26.26 23.25,24.66 23.25,22.7 C23.25,20.74 21.65,19.14 19.69,19.14 C17.73,19.14 16.13,20.74 16.13,22.7 C16.13,24.66 17.72,26.26 19.69,26.26 Z M19.69,19.93 C21.21,19.93 22.45,21.17 22.45,22.69 C22.45,24.21 21.21,25.45 19.69,25.45 C18.17,25.45 16.93,24.21 16.93,22.69 C16.93,21.17 18.17,19.93 19.69,19.93 Z" id="Shape"></path>
                <path d="M19.69,7.36 C19.91,7.36 20.09,7.18 20.09,6.96 L20.09,0.46 C20.09,0.24 19.91,0.06 19.69,0.06 C19.47,0.06 19.29,0.24 19.29,0.46 L19.29,6.96 C19.29,7.18 19.46,7.36 19.69,7.36 Z" id="Path"></path>
                <path d="M27.36,9.41 C27.42,9.45 27.49,9.46 27.56,9.46 C27.7,9.46 27.83,9.39 27.91,9.26 L31.16,3.63 C31.27,3.44 31.21,3.19 31.01,3.08 C30.82,2.97 30.57,3.03 30.46,3.23 L27.21,8.86 C27.1,9.06 27.17,9.3 27.36,9.41 Z" id="Path"></path>
                <path d="M39.3,11.38 C39.19,11.19 38.94,11.12 38.75,11.23 L33.12,14.48 C32.93,14.59 32.86,14.84 32.97,15.03 C33.04,15.16 33.18,15.23 33.32,15.23 C33.39,15.23 33.46,15.21 33.52,15.18 L39.15,11.93 C39.34,11.81 39.41,11.57 39.3,11.38 Z" id="Path"></path>
                <path d="M6.25,14.48 L0.62,11.23 C0.43,11.12 0.18,11.18 0.07,11.38 C-0.04,11.57 0.02,11.82 0.22,11.93 L5.85,15.18 C5.91,15.22 5.98,15.23 6.05,15.23 C6.19,15.23 6.32,15.16 6.4,15.03 C6.51,14.84 6.44,14.59 6.25,14.48 Z" id="Path"></path>
                <path d="M11.47,9.26 C11.54,9.39 11.68,9.46 11.82,9.46 C11.89,9.46 11.96,9.44 12.02,9.41 C12.21,9.3 12.28,9.05 12.17,8.86 L8.92,3.23 C8.81,3.04 8.56,2.97 8.37,3.08 C8.18,3.19 8.11,3.44 8.22,3.63 L11.47,9.26 Z" id="Path"></path>
            </g>
        </g>
    </g>
</svg>