<?xml version="1.0" encoding="UTF-8"?>
<svg width="39px" height="49px" viewBox="0 0 39 49" version="1.1" xmlns="http://www.w3.org/2000/svg" xmlns:xlink="http://www.w3.org/1999/xlink">
    <title>noun_Vector_3031418 2</title>
    <g id="Page-1" stroke="none" stroke-width="1" fill="none" fill-rule="evenodd">
        <g id="noun_Vector_3031418-2" fill="#AD75BE" fill-rule="nonzero">
            <g id="noun_Vector_3031418">
                <g transform="translate(19.500000, 24.500000) rotate(180.000000) translate(-19.500000, -24.500000) translate(-0.000000, -0.000000)" id="Group">
                    <g>
                        <path d="M12.69,27.59 L18.84,38.24 C18.84,38.25 18.85,38.25 18.85,38.25 C18.85,38.26 18.86,38.26 18.86,38.27 C18.87,38.29 18.89,38.31 18.9,38.32 L18.9,38.32 C18.92,38.34 18.93,38.35 18.95,38.36 C18.96,38.36 18.96,38.37 18.97,38.37 C18.99,38.38 19.01,38.39 19.02,38.4 C19.02,38.4 19.02,38.4 19.03,38.4 C19.05,38.41 19.07,38.41 19.09,38.42 C19.1,38.42 19.1,38.42 19.11,38.42 C19.13,38.42 19.16,38.43 19.18,38.43 L19.18,38.43 L19.18,38.43 L19.18,38.43 C19.2,38.43 19.23,38.43 19.25,38.42 C19.26,38.42 19.26,38.42 19.27,38.42 C19.29,38.41 19.31,38.41 19.34,38.4 C19.34,38.4 19.34,38.4 19.35,38.4 C19.37,38.39 19.39,38.38 19.41,38.37 L19.42,38.36 C19.44,38.35 19.46,38.33 19.47,38.32 L19.47,38.32 C19.49,38.3 19.5,38.29 19.51,38.27 C19.51,38.26 19.52,38.26 19.52,38.25 C19.52,38.24 19.53,38.24 19.53,38.23 L25.67,27.58 L31.81,16.94 C31.88,16.82 31.88,16.66 31.81,16.54 L25.97,6.41 C25.97,6.39 25.97,6.38 25.97,6.36 L25.97,0.46 C25.97,0.24 25.79,0.06 25.57,0.06 L12.8,0.06 C12.58,0.06 12.4,0.24 12.4,0.46 L12.4,6.36 C12.4,6.37 12.4,6.39 12.4,6.4 L6.54,16.55 C6.47,16.67 6.47,16.83 6.54,16.95 L12.69,27.59 Z M19.19,18.29 C18.95,18.29 18.75,18.09 18.75,17.85 C18.75,17.6 18.94,17.41 19.19,17.41 C19.43,17.41 19.63,17.61 19.63,17.85 C19.63,18.09 19.43,18.29 19.19,18.29 Z M25.18,0.86 L25.18,5.94 L13.2,5.94 L13.2,0.86 L25.18,0.86 Z M13.12,6.76 L25.25,6.76 L31.02,16.75 L24.99,27.19 L19.59,36.55 L19.59,19.02 C20.08,18.85 20.43,18.39 20.43,17.85 C20.43,17.17 19.87,16.61 19.19,16.61 C18.51,16.61 17.95,17.17 17.95,17.85 C17.95,18.39 18.3,18.86 18.79,19.02 L18.79,36.54 L13.39,27.18 L7.36,16.74 L13.12,6.76 Z" id="Shape"></path>
                        <path d="M37.98,31.36 L35.91,31.36 C35.69,31.36 35.51,31.54 35.51,31.76 L35.51,33.33 C35.51,33.55 35.69,33.73 35.91,33.73 L36.29,33.73 C34.49,41.07 28.15,46.49 20.62,47.1 L20.62,46.8 C20.62,46.58 20.44,46.4 20.22,46.4 L18.15,46.4 C17.93,46.4 17.75,46.58 17.75,46.8 L17.75,47.1 C10.22,46.49 3.88,41.07 2.08,33.73 L2.46,33.73 C2.68,33.73 2.86,33.55 2.86,33.33 L2.86,31.76 C2.86,31.54 2.68,31.36 2.46,31.36 L0.4,31.36 C0.18,31.36 0,31.54 0,31.76 L0,33.33 C0,33.55 0.18,33.73 0.4,33.73 L1.27,33.73 C2.79,40.23 7.71,45.32 13.93,47.19 L8.57,47.19 L8.57,46.8 C8.57,46.58 8.39,46.4 8.17,46.4 L6.1,46.4 C5.88,46.4 5.7,46.58 5.7,46.8 L5.7,48.37 C5.7,48.59 5.88,48.77 6.1,48.77 L8.17,48.77 C8.39,48.77 8.57,48.59 8.57,48.37 L8.57,47.99 L17.77,47.99 L17.77,48.37 C17.77,48.59 17.95,48.77 18.17,48.77 L20.24,48.77 C20.46,48.77 20.64,48.59 20.64,48.37 L20.64,47.99 L30.86,47.99 L30.86,48.37 C30.86,48.59 31.04,48.77 31.26,48.77 L33.33,48.77 C33.55,48.77 33.73,48.59 33.73,48.37 L33.73,46.8 C33.73,46.58 33.55,46.4 33.33,46.4 L31.26,46.4 C31.04,46.4 30.86,46.58 30.86,46.8 L30.86,47.19 L24.47,47.19 C30.68,45.32 35.61,40.23 37.13,33.73 L37.99,33.73 C38.21,33.73 38.39,33.55 38.39,33.33 L38.39,31.76 C38.38,31.54 38.2,31.36 37.98,31.36 Z M0.8,32.16 L2.07,32.16 L2.07,32.93 L1.59,32.93 L1.59,32.93 L0.8,32.93 C0.8,32.93 0.8,32.16 0.8,32.16 Z M6.49,47.97 L6.49,47.2 L7.76,47.2 L7.76,47.58 L7.76,47.58 L7.76,47.58 L7.76,47.96 L6.49,47.97 L6.49,47.97 Z M31.65,47.2 L32.92,47.2 L32.92,47.97 L31.65,47.97 L31.65,47.2 Z M19.83,47.97 L18.56,47.97 L18.56,47.2 L19.83,47.2 L19.83,47.97 Z M37.58,32.93 L36.8,32.93 L36.8,32.93 L36.31,32.93 L36.31,32.16 L37.58,32.16 L37.58,32.93 L37.58,32.93 Z" id="Shape"></path>
                    </g>
                </g>
            </g>
        </g>
    </g>
</svg>